<svg width="129" height="98" viewBox="0 0 129 98" fill="none" xmlns="http://www.w3.org/2000/svg">
<path d="M72.2732 3.35035L26.6364 48.9872L34.2425 56.5933L77.9775 12.8583C79.0274 11.8084 80.7302 11.8084 81.7811 12.8583L116.008 47.0854C117.058 48.1352 117.058 49.838 116.008 50.889L72.2732 94.624C76.4737 98.8245 83.2849 98.8245 87.4854 94.624L125.516 56.5933C129.717 52.3928 129.717 45.5816 125.516 41.381L87.4854 3.35035C83.2849 -0.850182 76.4737 -0.850182 72.2732 3.35035Z" fill="#00A9CE"/>
<path d="M79.8793 71.8065L102.698 48.9881L95.0916 41.382L51.3566 85.117C50.3067 86.1669 48.6039 86.1669 47.553 85.117L41.8486 79.4127L87.4855 33.7759L79.8793 26.1697L34.2425 71.8065L13.3259 50.8899C12.2761 49.8401 12.2761 48.1373 13.3259 47.0863L57.0609 3.35131C52.8604 -0.849221 46.0492 -0.849221 41.8486 3.35131L3.8169 41.3809C-0.383629 45.5814 -0.383629 52.3927 3.8169 56.5932L41.8476 94.6239C46.0481 98.8244 52.8593 98.8244 57.0598 94.6239L79.8782 71.8055L79.8793 71.8065Z" fill="#425563"/>
</svg>
